<mxfile host="Electron" modified="2023-10-18T07:36:26.761Z" agent="Mozilla/5.0 (Windows NT 10.0; Win64; x64) AppleWebKit/537.36 (KHTML, like Gecko) draw.io/22.0.2 Chrome/114.0.5735.289 Electron/25.8.4 Safari/537.36" etag="kQMx0vpb-yPOump2DQ5-" version="22.0.2" type="device">
  <diagram name="1 oldal" id="G3XP9oz0gutzlk2qWR2e">
    <mxGraphModel dx="3962" dy="1415" grid="1" gridSize="10" guides="1" tooltips="1" connect="1" arrows="1" fold="1" page="1" pageScale="1" pageWidth="827" pageHeight="1169" math="0" shadow="0">
      <root>
        <mxCell id="0" />
        <mxCell id="1" parent="0" />
        <mxCell id="x0oVIGQgTyDs9HoZcm1z-2" style="edgeStyle=orthogonalEdgeStyle;rounded=0;orthogonalLoop=1;jettySize=auto;html=1;" parent="1" source="x0oVIGQgTyDs9HoZcm1z-1" target="x0oVIGQgTyDs9HoZcm1z-3" edge="1">
          <mxGeometry relative="1" as="geometry">
            <mxPoint x="410" y="410" as="targetPoint" />
          </mxGeometry>
        </mxCell>
        <mxCell id="x0oVIGQgTyDs9HoZcm1z-4" style="edgeStyle=orthogonalEdgeStyle;rounded=0;orthogonalLoop=1;jettySize=auto;html=1;" parent="1" source="x0oVIGQgTyDs9HoZcm1z-1" target="x0oVIGQgTyDs9HoZcm1z-5" edge="1">
          <mxGeometry relative="1" as="geometry">
            <mxPoint x="270" y="390" as="targetPoint" />
          </mxGeometry>
        </mxCell>
        <mxCell id="x0oVIGQgTyDs9HoZcm1z-6" style="edgeStyle=orthogonalEdgeStyle;rounded=0;orthogonalLoop=1;jettySize=auto;html=1;" parent="1" source="x0oVIGQgTyDs9HoZcm1z-1" target="x0oVIGQgTyDs9HoZcm1z-7" edge="1">
          <mxGeometry relative="1" as="geometry">
            <mxPoint x="550" y="350" as="targetPoint" />
          </mxGeometry>
        </mxCell>
        <mxCell id="x0oVIGQgTyDs9HoZcm1z-30" style="edgeStyle=orthogonalEdgeStyle;rounded=0;orthogonalLoop=1;jettySize=auto;html=1;" parent="1" source="x0oVIGQgTyDs9HoZcm1z-1" target="x0oVIGQgTyDs9HoZcm1z-31" edge="1">
          <mxGeometry relative="1" as="geometry">
            <mxPoint x="1440" y="420" as="targetPoint" />
          </mxGeometry>
        </mxCell>
        <mxCell id="x0oVIGQgTyDs9HoZcm1z-1" value="jön egy autó" style="rounded=1;whiteSpace=wrap;html=1;" parent="1" vertex="1">
          <mxGeometry x="350" y="270" width="120" height="70" as="geometry" />
        </mxCell>
        <mxCell id="x0oVIGQgTyDs9HoZcm1z-20" style="edgeStyle=orthogonalEdgeStyle;rounded=0;orthogonalLoop=1;jettySize=auto;html=1;" parent="1" source="x0oVIGQgTyDs9HoZcm1z-3" target="x0oVIGQgTyDs9HoZcm1z-21" edge="1">
          <mxGeometry relative="1" as="geometry">
            <mxPoint x="250" y="470" as="targetPoint" />
          </mxGeometry>
        </mxCell>
        <mxCell id="x0oVIGQgTyDs9HoZcm1z-46" style="edgeStyle=orthogonalEdgeStyle;rounded=0;orthogonalLoop=1;jettySize=auto;html=1;entryX=0.5;entryY=0;entryDx=0;entryDy=0;" parent="1" source="x0oVIGQgTyDs9HoZcm1z-3" target="x0oVIGQgTyDs9HoZcm1z-23" edge="1">
          <mxGeometry relative="1" as="geometry" />
        </mxCell>
        <mxCell id="x0oVIGQgTyDs9HoZcm1z-3" value="kamion" style="rounded=1;whiteSpace=wrap;html=1;" parent="1" vertex="1">
          <mxGeometry x="140" y="410" width="120" height="60" as="geometry" />
        </mxCell>
        <mxCell id="x0oVIGQgTyDs9HoZcm1z-9" style="edgeStyle=orthogonalEdgeStyle;rounded=0;orthogonalLoop=1;jettySize=auto;html=1;" parent="1" source="x0oVIGQgTyDs9HoZcm1z-5" target="x0oVIGQgTyDs9HoZcm1z-10" edge="1">
          <mxGeometry relative="1" as="geometry">
            <mxPoint x="-630" y="460" as="targetPoint" />
          </mxGeometry>
        </mxCell>
        <mxCell id="x0oVIGQgTyDs9HoZcm1z-11" style="edgeStyle=orthogonalEdgeStyle;rounded=0;orthogonalLoop=1;jettySize=auto;html=1;" parent="1" source="x0oVIGQgTyDs9HoZcm1z-5" target="x0oVIGQgTyDs9HoZcm1z-12" edge="1">
          <mxGeometry relative="1" as="geometry">
            <mxPoint x="-370" y="480" as="targetPoint" />
          </mxGeometry>
        </mxCell>
        <mxCell id="x0oVIGQgTyDs9HoZcm1z-13" style="edgeStyle=orthogonalEdgeStyle;rounded=0;orthogonalLoop=1;jettySize=auto;html=1;" parent="1" source="x0oVIGQgTyDs9HoZcm1z-5" target="x0oVIGQgTyDs9HoZcm1z-17" edge="1">
          <mxGeometry relative="1" as="geometry">
            <mxPoint x="-700" y="470" as="targetPoint" />
          </mxGeometry>
        </mxCell>
        <mxCell id="x0oVIGQgTyDs9HoZcm1z-18" style="edgeStyle=orthogonalEdgeStyle;rounded=0;orthogonalLoop=1;jettySize=auto;html=1;" parent="1" source="x0oVIGQgTyDs9HoZcm1z-5" target="x0oVIGQgTyDs9HoZcm1z-19" edge="1">
          <mxGeometry relative="1" as="geometry">
            <mxPoint x="-490" y="470" as="targetPoint" />
          </mxGeometry>
        </mxCell>
        <mxCell id="x0oVIGQgTyDs9HoZcm1z-5" value="autó" style="rounded=1;whiteSpace=wrap;html=1;" parent="1" vertex="1">
          <mxGeometry x="-820" y="350" width="120" height="60" as="geometry" />
        </mxCell>
        <mxCell id="x0oVIGQgTyDs9HoZcm1z-24" style="edgeStyle=orthogonalEdgeStyle;rounded=0;orthogonalLoop=1;jettySize=auto;html=1;" parent="1" source="x0oVIGQgTyDs9HoZcm1z-7" target="x0oVIGQgTyDs9HoZcm1z-25" edge="1">
          <mxGeometry relative="1" as="geometry">
            <mxPoint x="980" y="450" as="targetPoint" />
          </mxGeometry>
        </mxCell>
        <mxCell id="x0oVIGQgTyDs9HoZcm1z-26" style="edgeStyle=orthogonalEdgeStyle;rounded=0;orthogonalLoop=1;jettySize=auto;html=1;" parent="1" source="x0oVIGQgTyDs9HoZcm1z-7" target="x0oVIGQgTyDs9HoZcm1z-27" edge="1">
          <mxGeometry relative="1" as="geometry">
            <mxPoint x="1200" y="480" as="targetPoint" />
          </mxGeometry>
        </mxCell>
        <mxCell id="x0oVIGQgTyDs9HoZcm1z-28" style="edgeStyle=orthogonalEdgeStyle;rounded=0;orthogonalLoop=1;jettySize=auto;html=1;" parent="1" source="x0oVIGQgTyDs9HoZcm1z-7" target="x0oVIGQgTyDs9HoZcm1z-29" edge="1">
          <mxGeometry relative="1" as="geometry">
            <mxPoint x="1430" y="450" as="targetPoint" />
          </mxGeometry>
        </mxCell>
        <mxCell id="x0oVIGQgTyDs9HoZcm1z-7" value="busz" style="rounded=1;whiteSpace=wrap;html=1;" parent="1" vertex="1">
          <mxGeometry x="1140" y="370" width="120" height="60" as="geometry" />
        </mxCell>
        <mxCell id="x0oVIGQgTyDs9HoZcm1z-10" value="szegény" style="rounded=1;whiteSpace=wrap;html=1;" parent="1" vertex="1">
          <mxGeometry x="-1070" y="470" width="120" height="60" as="geometry" />
        </mxCell>
        <mxCell id="x0oVIGQgTyDs9HoZcm1z-12" value="átlagos" style="rounded=1;whiteSpace=wrap;html=1;" parent="1" vertex="1">
          <mxGeometry x="-910" y="470" width="120" height="60" as="geometry" />
        </mxCell>
        <mxCell id="x0oVIGQgTyDs9HoZcm1z-17" value="gazdag" style="rounded=1;whiteSpace=wrap;html=1;" parent="1" vertex="1">
          <mxGeometry x="-740" y="470" width="120" height="60" as="geometry" />
        </mxCell>
        <mxCell id="x0oVIGQgTyDs9HoZcm1z-19" value="speciális" style="rounded=1;whiteSpace=wrap;html=1;" parent="1" vertex="1">
          <mxGeometry x="-560" y="470" width="120" height="60" as="geometry" />
        </mxCell>
        <mxCell id="x0oVIGQgTyDs9HoZcm1z-21" value="kis furgon" style="rounded=1;whiteSpace=wrap;html=1;" parent="1" vertex="1">
          <mxGeometry x="-50" y="490" width="120" height="60" as="geometry" />
        </mxCell>
        <mxCell id="x0oVIGQgTyDs9HoZcm1z-23" value="átlagos kamion" style="rounded=1;whiteSpace=wrap;html=1;" parent="1" vertex="1">
          <mxGeometry x="270" y="480" width="120" height="60" as="geometry" />
        </mxCell>
        <mxCell id="x0oVIGQgTyDs9HoZcm1z-25" value="iskolai busz" style="rounded=1;whiteSpace=wrap;html=1;" parent="1" vertex="1">
          <mxGeometry x="920" y="440" width="120" height="60" as="geometry" />
        </mxCell>
        <mxCell id="x0oVIGQgTyDs9HoZcm1z-27" value="távolsági busz" style="rounded=1;whiteSpace=wrap;html=1;" parent="1" vertex="1">
          <mxGeometry x="1140" y="450" width="120" height="60" as="geometry" />
        </mxCell>
        <mxCell id="x0oVIGQgTyDs9HoZcm1z-29" value="rabszállító busz" style="rounded=1;whiteSpace=wrap;html=1;" parent="1" vertex="1">
          <mxGeometry x="1370" y="450" width="120" height="60" as="geometry" />
        </mxCell>
        <mxCell id="x0oVIGQgTyDs9HoZcm1z-32" style="edgeStyle=orthogonalEdgeStyle;rounded=0;orthogonalLoop=1;jettySize=auto;html=1;" parent="1" source="x0oVIGQgTyDs9HoZcm1z-31" target="x0oVIGQgTyDs9HoZcm1z-33" edge="1">
          <mxGeometry relative="1" as="geometry">
            <mxPoint x="2138" y="480" as="targetPoint" />
          </mxGeometry>
        </mxCell>
        <mxCell id="x0oVIGQgTyDs9HoZcm1z-34" style="edgeStyle=orthogonalEdgeStyle;rounded=0;orthogonalLoop=1;jettySize=auto;html=1;" parent="1" source="x0oVIGQgTyDs9HoZcm1z-31" target="x0oVIGQgTyDs9HoZcm1z-35" edge="1">
          <mxGeometry relative="1" as="geometry">
            <mxPoint x="2298" y="520" as="targetPoint" />
          </mxGeometry>
        </mxCell>
        <mxCell id="x0oVIGQgTyDs9HoZcm1z-36" style="edgeStyle=orthogonalEdgeStyle;rounded=0;orthogonalLoop=1;jettySize=auto;html=1;" parent="1" source="x0oVIGQgTyDs9HoZcm1z-31" target="x0oVIGQgTyDs9HoZcm1z-37" edge="1">
          <mxGeometry relative="1" as="geometry">
            <mxPoint x="2428" y="490" as="targetPoint" />
          </mxGeometry>
        </mxCell>
        <mxCell id="x0oVIGQgTyDs9HoZcm1z-31" value="egyéb" style="rounded=1;whiteSpace=wrap;html=1;" parent="1" vertex="1">
          <mxGeometry x="2238" y="390" width="120" height="60" as="geometry" />
        </mxCell>
        <mxCell id="x0oVIGQgTyDs9HoZcm1z-33" value="gyalog" style="rounded=1;whiteSpace=wrap;html=1;" parent="1" vertex="1">
          <mxGeometry x="2068" y="460" width="120" height="60" as="geometry" />
        </mxCell>
        <mxCell id="x0oVIGQgTyDs9HoZcm1z-35" value="bicikli" style="rounded=1;whiteSpace=wrap;html=1;" parent="1" vertex="1">
          <mxGeometry x="2238" y="460" width="120" height="60" as="geometry" />
        </mxCell>
        <mxCell id="x0oVIGQgTyDs9HoZcm1z-37" value="roller" style="rounded=1;whiteSpace=wrap;html=1;" parent="1" vertex="1">
          <mxGeometry x="2382" y="460" width="120" height="60" as="geometry" />
        </mxCell>
        <mxCell id="x0oVIGQgTyDs9HoZcm1z-45" value="" style="html=1;shadow=0;dashed=0;align=center;verticalAlign=middle;shape=mxgraph.arrows2.arrow;dy=1;dx=51;direction=south;notch=0;" parent="1" vertex="1">
          <mxGeometry x="-1010" y="580" width="260" height="180" as="geometry" />
        </mxCell>
        <mxCell id="x0oVIGQgTyDs9HoZcm1z-61" style="edgeStyle=orthogonalEdgeStyle;rounded=0;orthogonalLoop=1;jettySize=auto;html=1;" parent="1" source="x0oVIGQgTyDs9HoZcm1z-59" target="x0oVIGQgTyDs9HoZcm1z-62" edge="1">
          <mxGeometry relative="1" as="geometry">
            <mxPoint x="-970" y="890" as="targetPoint" />
          </mxGeometry>
        </mxCell>
        <mxCell id="x0oVIGQgTyDs9HoZcm1z-63" style="edgeStyle=orthogonalEdgeStyle;rounded=0;orthogonalLoop=1;jettySize=auto;html=1;" parent="1" source="x0oVIGQgTyDs9HoZcm1z-59" target="x0oVIGQgTyDs9HoZcm1z-64" edge="1">
          <mxGeometry relative="1" as="geometry">
            <mxPoint x="-800" y="900" as="targetPoint" />
          </mxGeometry>
        </mxCell>
        <mxCell id="x0oVIGQgTyDs9HoZcm1z-68" style="edgeStyle=orthogonalEdgeStyle;rounded=0;orthogonalLoop=1;jettySize=auto;html=1;" parent="1" source="x0oVIGQgTyDs9HoZcm1z-59" target="x0oVIGQgTyDs9HoZcm1z-69" edge="1">
          <mxGeometry relative="1" as="geometry">
            <mxPoint x="-890" y="990" as="targetPoint" />
            <Array as="points">
              <mxPoint x="-680" y="850" />
            </Array>
          </mxGeometry>
        </mxCell>
        <mxCell id="x0oVIGQgTyDs9HoZcm1z-79" style="edgeStyle=orthogonalEdgeStyle;rounded=0;orthogonalLoop=1;jettySize=auto;html=1;" parent="1" source="x0oVIGQgTyDs9HoZcm1z-59" target="x0oVIGQgTyDs9HoZcm1z-80" edge="1">
          <mxGeometry relative="1" as="geometry">
            <mxPoint x="-870" y="930" as="targetPoint" />
          </mxGeometry>
        </mxCell>
        <mxCell id="x0oVIGQgTyDs9HoZcm1z-59" value="lehetőségek" style="rounded=1;whiteSpace=wrap;html=1;" parent="1" vertex="1">
          <mxGeometry x="-1030" y="800" width="120" height="60" as="geometry" />
        </mxCell>
        <mxCell id="x0oVIGQgTyDs9HoZcm1z-62" value="nem engedem át" style="rounded=1;whiteSpace=wrap;html=1;" parent="1" vertex="1">
          <mxGeometry x="-1530" y="890" width="120" height="60" as="geometry" />
        </mxCell>
        <mxCell id="x0oVIGQgTyDs9HoZcm1z-64" value="átengedem" style="rounded=1;whiteSpace=wrap;html=1;" parent="1" vertex="1">
          <mxGeometry x="-470" y="870" width="120" height="60" as="geometry" />
        </mxCell>
        <mxCell id="x0oVIGQgTyDs9HoZcm1z-71" style="edgeStyle=orthogonalEdgeStyle;rounded=0;orthogonalLoop=1;jettySize=auto;html=1;" parent="1" source="x0oVIGQgTyDs9HoZcm1z-69" target="x0oVIGQgTyDs9HoZcm1z-72" edge="1">
          <mxGeometry relative="1" as="geometry">
            <mxPoint x="-890" y="1070" as="targetPoint" />
          </mxGeometry>
        </mxCell>
        <mxCell id="x0oVIGQgTyDs9HoZcm1z-73" style="edgeStyle=orthogonalEdgeStyle;rounded=0;orthogonalLoop=1;jettySize=auto;html=1;" parent="1" source="x0oVIGQgTyDs9HoZcm1z-69" target="x0oVIGQgTyDs9HoZcm1z-74" edge="1">
          <mxGeometry relative="1" as="geometry">
            <mxPoint x="-830" y="1150" as="targetPoint" />
          </mxGeometry>
        </mxCell>
        <mxCell id="x0oVIGQgTyDs9HoZcm1z-69" value="csomagtartó megnézése" style="rounded=1;whiteSpace=wrap;html=1;" parent="1" vertex="1">
          <mxGeometry x="-730" y="950" width="120" height="60" as="geometry" />
        </mxCell>
        <mxCell id="QojsgQzTeg6_Ytx6wrmI-13" value="" style="edgeStyle=orthogonalEdgeStyle;rounded=0;orthogonalLoop=1;jettySize=auto;html=1;" edge="1" parent="1" source="x0oVIGQgTyDs9HoZcm1z-72" target="QojsgQzTeg6_Ytx6wrmI-12">
          <mxGeometry relative="1" as="geometry" />
        </mxCell>
        <mxCell id="QojsgQzTeg6_Ytx6wrmI-14" style="edgeStyle=orthogonalEdgeStyle;rounded=0;orthogonalLoop=1;jettySize=auto;html=1;" edge="1" parent="1" source="x0oVIGQgTyDs9HoZcm1z-72" target="QojsgQzTeg6_Ytx6wrmI-15">
          <mxGeometry relative="1" as="geometry">
            <mxPoint x="-680" y="1302.5" as="targetPoint" />
          </mxGeometry>
        </mxCell>
        <mxCell id="x0oVIGQgTyDs9HoZcm1z-72" value="van bőrönd" style="rounded=1;whiteSpace=wrap;html=1;" parent="1" vertex="1">
          <mxGeometry x="-790" y="1162.5" width="120" height="60" as="geometry" />
        </mxCell>
        <mxCell id="QojsgQzTeg6_Ytx6wrmI-9" value="" style="edgeStyle=orthogonalEdgeStyle;rounded=0;orthogonalLoop=1;jettySize=auto;html=1;" edge="1" parent="1" source="x0oVIGQgTyDs9HoZcm1z-74" target="QojsgQzTeg6_Ytx6wrmI-8">
          <mxGeometry relative="1" as="geometry" />
        </mxCell>
        <mxCell id="QojsgQzTeg6_Ytx6wrmI-10" style="edgeStyle=orthogonalEdgeStyle;rounded=0;orthogonalLoop=1;jettySize=auto;html=1;" edge="1" parent="1" source="x0oVIGQgTyDs9HoZcm1z-74" target="QojsgQzTeg6_Ytx6wrmI-11">
          <mxGeometry relative="1" as="geometry">
            <mxPoint x="-470" y="1240" as="targetPoint" />
          </mxGeometry>
        </mxCell>
        <mxCell id="x0oVIGQgTyDs9HoZcm1z-74" value="nincs bőrönd" style="rounded=1;whiteSpace=wrap;html=1;" parent="1" vertex="1">
          <mxGeometry x="-590" y="1135" width="120" height="60" as="geometry" />
        </mxCell>
        <mxCell id="x0oVIGQgTyDs9HoZcm1z-81" style="edgeStyle=orthogonalEdgeStyle;rounded=0;orthogonalLoop=1;jettySize=auto;html=1;" parent="1" source="x0oVIGQgTyDs9HoZcm1z-80" target="x0oVIGQgTyDs9HoZcm1z-82" edge="1">
          <mxGeometry relative="1" as="geometry">
            <mxPoint x="-1060" y="1030" as="targetPoint" />
          </mxGeometry>
        </mxCell>
        <mxCell id="QojsgQzTeg6_Ytx6wrmI-1" value="" style="edgeStyle=orthogonalEdgeStyle;rounded=0;orthogonalLoop=1;jettySize=auto;html=1;" edge="1" parent="1" source="x0oVIGQgTyDs9HoZcm1z-80" target="x0oVIGQgTyDs9HoZcm1z-82">
          <mxGeometry relative="1" as="geometry" />
        </mxCell>
        <mxCell id="QojsgQzTeg6_Ytx6wrmI-2" style="edgeStyle=orthogonalEdgeStyle;rounded=0;orthogonalLoop=1;jettySize=auto;html=1;" edge="1" parent="1" source="x0oVIGQgTyDs9HoZcm1z-80" target="QojsgQzTeg6_Ytx6wrmI-3">
          <mxGeometry relative="1" as="geometry">
            <mxPoint x="-920" y="1000" as="targetPoint" />
          </mxGeometry>
        </mxCell>
        <mxCell id="x0oVIGQgTyDs9HoZcm1z-80" value="papírok" style="rounded=1;whiteSpace=wrap;html=1;" parent="1" vertex="1">
          <mxGeometry x="-1030" y="900" width="120" height="60" as="geometry" />
        </mxCell>
        <mxCell id="x0oVIGQgTyDs9HoZcm1z-83" style="edgeStyle=orthogonalEdgeStyle;rounded=0;orthogonalLoop=1;jettySize=auto;html=1;" parent="1" source="x0oVIGQgTyDs9HoZcm1z-82" target="x0oVIGQgTyDs9HoZcm1z-84" edge="1">
          <mxGeometry relative="1" as="geometry">
            <mxPoint x="-1120" y="1100" as="targetPoint" />
          </mxGeometry>
        </mxCell>
        <mxCell id="x0oVIGQgTyDs9HoZcm1z-85" style="edgeStyle=orthogonalEdgeStyle;rounded=0;orthogonalLoop=1;jettySize=auto;html=1;" parent="1" source="x0oVIGQgTyDs9HoZcm1z-82" target="x0oVIGQgTyDs9HoZcm1z-86" edge="1">
          <mxGeometry relative="1" as="geometry">
            <mxPoint x="-1030" y="1100" as="targetPoint" />
          </mxGeometry>
        </mxCell>
        <mxCell id="x0oVIGQgTyDs9HoZcm1z-82" value="jogsi" style="rounded=1;whiteSpace=wrap;html=1;" parent="1" vertex="1">
          <mxGeometry x="-1120" y="1000" width="120" height="60" as="geometry" />
        </mxCell>
        <mxCell id="QojsgQzTeg6_Ytx6wrmI-42" value="" style="edgeStyle=orthogonalEdgeStyle;rounded=0;orthogonalLoop=1;jettySize=auto;html=1;" edge="1" parent="1" source="x0oVIGQgTyDs9HoZcm1z-84" target="QojsgQzTeg6_Ytx6wrmI-41">
          <mxGeometry relative="1" as="geometry" />
        </mxCell>
        <mxCell id="QojsgQzTeg6_Ytx6wrmI-44" value="" style="edgeStyle=orthogonalEdgeStyle;rounded=0;orthogonalLoop=1;jettySize=auto;html=1;" edge="1" parent="1" source="x0oVIGQgTyDs9HoZcm1z-84" target="QojsgQzTeg6_Ytx6wrmI-43">
          <mxGeometry relative="1" as="geometry" />
        </mxCell>
        <mxCell id="x0oVIGQgTyDs9HoZcm1z-84" value="van gond" style="rounded=1;whiteSpace=wrap;html=1;" parent="1" vertex="1">
          <mxGeometry x="-1120" y="1090" width="50" height="40" as="geometry" />
        </mxCell>
        <mxCell id="x0oVIGQgTyDs9HoZcm1z-86" value="nincs gond" style="rounded=1;whiteSpace=wrap;html=1;" parent="1" vertex="1">
          <mxGeometry x="-1060" y="1095" width="60" height="30" as="geometry" />
        </mxCell>
        <mxCell id="QojsgQzTeg6_Ytx6wrmI-5" value="" style="edgeStyle=orthogonalEdgeStyle;rounded=0;orthogonalLoop=1;jettySize=auto;html=1;" edge="1" parent="1" source="QojsgQzTeg6_Ytx6wrmI-3" target="QojsgQzTeg6_Ytx6wrmI-4">
          <mxGeometry relative="1" as="geometry" />
        </mxCell>
        <mxCell id="QojsgQzTeg6_Ytx6wrmI-6" style="edgeStyle=orthogonalEdgeStyle;rounded=0;orthogonalLoop=1;jettySize=auto;html=1;" edge="1" parent="1" source="QojsgQzTeg6_Ytx6wrmI-3" target="QojsgQzTeg6_Ytx6wrmI-7">
          <mxGeometry relative="1" as="geometry">
            <mxPoint x="-860" y="1100.0000000000002" as="targetPoint" />
          </mxGeometry>
        </mxCell>
        <mxCell id="QojsgQzTeg6_Ytx6wrmI-3" value="személyi igazolvány" style="rounded=1;whiteSpace=wrap;html=1;" vertex="1" parent="1">
          <mxGeometry x="-960" y="1000" width="120" height="60" as="geometry" />
        </mxCell>
        <mxCell id="QojsgQzTeg6_Ytx6wrmI-50" value="" style="edgeStyle=orthogonalEdgeStyle;rounded=0;orthogonalLoop=1;jettySize=auto;html=1;" edge="1" parent="1" source="QojsgQzTeg6_Ytx6wrmI-4" target="QojsgQzTeg6_Ytx6wrmI-49">
          <mxGeometry relative="1" as="geometry" />
        </mxCell>
        <mxCell id="QojsgQzTeg6_Ytx6wrmI-51" value="" style="edgeStyle=orthogonalEdgeStyle;rounded=0;orthogonalLoop=1;jettySize=auto;html=1;" edge="1" parent="1" source="QojsgQzTeg6_Ytx6wrmI-4" target="QojsgQzTeg6_Ytx6wrmI-49">
          <mxGeometry relative="1" as="geometry" />
        </mxCell>
        <mxCell id="QojsgQzTeg6_Ytx6wrmI-52" style="edgeStyle=orthogonalEdgeStyle;rounded=0;orthogonalLoop=1;jettySize=auto;html=1;" edge="1" parent="1" source="QojsgQzTeg6_Ytx6wrmI-4" target="QojsgQzTeg6_Ytx6wrmI-53">
          <mxGeometry relative="1" as="geometry">
            <mxPoint x="-910" y="1180" as="targetPoint" />
          </mxGeometry>
        </mxCell>
        <mxCell id="QojsgQzTeg6_Ytx6wrmI-4" value="van gond" style="whiteSpace=wrap;html=1;rounded=1;" vertex="1" parent="1">
          <mxGeometry x="-970" y="1095" width="50" height="40" as="geometry" />
        </mxCell>
        <mxCell id="QojsgQzTeg6_Ytx6wrmI-7" value="nincs gond" style="rounded=1;whiteSpace=wrap;html=1;" vertex="1" parent="1">
          <mxGeometry x="-890" y="1095" width="60" height="40" as="geometry" />
        </mxCell>
        <mxCell id="QojsgQzTeg6_Ytx6wrmI-75" value="" style="edgeStyle=orthogonalEdgeStyle;rounded=0;orthogonalLoop=1;jettySize=auto;html=1;" edge="1" parent="1" source="QojsgQzTeg6_Ytx6wrmI-8" target="QojsgQzTeg6_Ytx6wrmI-71">
          <mxGeometry relative="1" as="geometry" />
        </mxCell>
        <mxCell id="QojsgQzTeg6_Ytx6wrmI-77" style="edgeStyle=orthogonalEdgeStyle;rounded=0;orthogonalLoop=1;jettySize=auto;html=1;" edge="1" parent="1" source="QojsgQzTeg6_Ytx6wrmI-8" target="QojsgQzTeg6_Ytx6wrmI-72">
          <mxGeometry relative="1" as="geometry" />
        </mxCell>
        <mxCell id="QojsgQzTeg6_Ytx6wrmI-8" value="van gond" style="whiteSpace=wrap;html=1;rounded=1;" vertex="1" parent="1">
          <mxGeometry x="-580" y="1227.5" width="50" height="35" as="geometry" />
        </mxCell>
        <mxCell id="QojsgQzTeg6_Ytx6wrmI-11" value="nincs gond" style="rounded=1;whiteSpace=wrap;html=1;" vertex="1" parent="1">
          <mxGeometry x="-480" y="1230" width="50" height="40" as="geometry" />
        </mxCell>
        <mxCell id="QojsgQzTeg6_Ytx6wrmI-64" value="" style="edgeStyle=orthogonalEdgeStyle;rounded=0;orthogonalLoop=1;jettySize=auto;html=1;" edge="1" parent="1" source="QojsgQzTeg6_Ytx6wrmI-12" target="QojsgQzTeg6_Ytx6wrmI-60">
          <mxGeometry relative="1" as="geometry" />
        </mxCell>
        <mxCell id="QojsgQzTeg6_Ytx6wrmI-76" style="edgeStyle=orthogonalEdgeStyle;rounded=0;orthogonalLoop=1;jettySize=auto;html=1;entryX=0.25;entryY=0;entryDx=0;entryDy=0;" edge="1" parent="1" source="QojsgQzTeg6_Ytx6wrmI-12" target="QojsgQzTeg6_Ytx6wrmI-61">
          <mxGeometry relative="1" as="geometry" />
        </mxCell>
        <mxCell id="QojsgQzTeg6_Ytx6wrmI-12" value="van gond" style="whiteSpace=wrap;html=1;rounded=1;" vertex="1" parent="1">
          <mxGeometry x="-860" y="1272.5" width="70" height="45" as="geometry" />
        </mxCell>
        <mxCell id="QojsgQzTeg6_Ytx6wrmI-15" value="nincs gond" style="rounded=1;whiteSpace=wrap;html=1;" vertex="1" parent="1">
          <mxGeometry x="-740" y="1272.5" width="60" height="40" as="geometry" />
        </mxCell>
        <mxCell id="QojsgQzTeg6_Ytx6wrmI-19" value="" style="html=1;shadow=0;dashed=0;align=center;verticalAlign=middle;shape=mxgraph.arrows2.arrow;dy=1;dx=51;direction=south;notch=0;" vertex="1" parent="1">
          <mxGeometry x="130" y="580" width="260" height="180" as="geometry" />
        </mxCell>
        <mxCell id="QojsgQzTeg6_Ytx6wrmI-22" value="" style="edgeStyle=orthogonalEdgeStyle;rounded=0;orthogonalLoop=1;jettySize=auto;html=1;" edge="1" parent="1" source="QojsgQzTeg6_Ytx6wrmI-20" target="QojsgQzTeg6_Ytx6wrmI-21">
          <mxGeometry relative="1" as="geometry" />
        </mxCell>
        <mxCell id="QojsgQzTeg6_Ytx6wrmI-24" value="" style="edgeStyle=orthogonalEdgeStyle;rounded=0;orthogonalLoop=1;jettySize=auto;html=1;" edge="1" parent="1" source="QojsgQzTeg6_Ytx6wrmI-20" target="QojsgQzTeg6_Ytx6wrmI-23">
          <mxGeometry relative="1" as="geometry" />
        </mxCell>
        <mxCell id="QojsgQzTeg6_Ytx6wrmI-26" value="" style="edgeStyle=orthogonalEdgeStyle;rounded=0;orthogonalLoop=1;jettySize=auto;html=1;" edge="1" parent="1" source="QojsgQzTeg6_Ytx6wrmI-20" target="QojsgQzTeg6_Ytx6wrmI-25">
          <mxGeometry relative="1" as="geometry" />
        </mxCell>
        <mxCell id="QojsgQzTeg6_Ytx6wrmI-20" value="lehetőségek" style="rounded=1;whiteSpace=wrap;html=1;" vertex="1" parent="1">
          <mxGeometry x="200" y="800" width="120" height="60" as="geometry" />
        </mxCell>
        <mxCell id="QojsgQzTeg6_Ytx6wrmI-21" value="átengedem" style="whiteSpace=wrap;html=1;rounded=1;" vertex="1" parent="1">
          <mxGeometry x="760" y="890" width="120" height="60" as="geometry" />
        </mxCell>
        <mxCell id="QojsgQzTeg6_Ytx6wrmI-23" value="nem engedem át" style="whiteSpace=wrap;html=1;rounded=1;" vertex="1" parent="1">
          <mxGeometry x="-270" y="880" width="120" height="60" as="geometry" />
        </mxCell>
        <mxCell id="QojsgQzTeg6_Ytx6wrmI-28" value="" style="edgeStyle=orthogonalEdgeStyle;rounded=0;orthogonalLoop=1;jettySize=auto;html=1;" edge="1" parent="1" source="QojsgQzTeg6_Ytx6wrmI-25" target="QojsgQzTeg6_Ytx6wrmI-27">
          <mxGeometry relative="1" as="geometry" />
        </mxCell>
        <mxCell id="QojsgQzTeg6_Ytx6wrmI-33" style="edgeStyle=orthogonalEdgeStyle;rounded=0;orthogonalLoop=1;jettySize=auto;html=1;" edge="1" parent="1" source="QojsgQzTeg6_Ytx6wrmI-25" target="QojsgQzTeg6_Ytx6wrmI-34">
          <mxGeometry relative="1" as="geometry">
            <mxPoint x="10" y="1070" as="targetPoint" />
          </mxGeometry>
        </mxCell>
        <mxCell id="QojsgQzTeg6_Ytx6wrmI-25" value="papírok" style="whiteSpace=wrap;html=1;rounded=1;" vertex="1" parent="1">
          <mxGeometry x="-40" y="905" width="120" height="60" as="geometry" />
        </mxCell>
        <mxCell id="QojsgQzTeg6_Ytx6wrmI-30" value="" style="edgeStyle=orthogonalEdgeStyle;rounded=0;orthogonalLoop=1;jettySize=auto;html=1;" edge="1" parent="1" source="QojsgQzTeg6_Ytx6wrmI-27" target="QojsgQzTeg6_Ytx6wrmI-29">
          <mxGeometry relative="1" as="geometry" />
        </mxCell>
        <mxCell id="QojsgQzTeg6_Ytx6wrmI-31" style="edgeStyle=orthogonalEdgeStyle;rounded=0;orthogonalLoop=1;jettySize=auto;html=1;" edge="1" parent="1" source="QojsgQzTeg6_Ytx6wrmI-27" target="QojsgQzTeg6_Ytx6wrmI-32">
          <mxGeometry relative="1" as="geometry">
            <mxPoint x="-170" y="1160" as="targetPoint" />
          </mxGeometry>
        </mxCell>
        <mxCell id="QojsgQzTeg6_Ytx6wrmI-27" value="jogsi" style="whiteSpace=wrap;html=1;rounded=1;" vertex="1" parent="1">
          <mxGeometry x="-120" y="1005" width="120" height="60" as="geometry" />
        </mxCell>
        <mxCell id="QojsgQzTeg6_Ytx6wrmI-29" value="nincs gond" style="whiteSpace=wrap;html=1;rounded=1;" vertex="1" parent="1">
          <mxGeometry x="-20" y="1125" width="60" height="40" as="geometry" />
        </mxCell>
        <mxCell id="QojsgQzTeg6_Ytx6wrmI-97" value="" style="edgeStyle=orthogonalEdgeStyle;rounded=0;orthogonalLoop=1;jettySize=auto;html=1;" edge="1" parent="1" source="QojsgQzTeg6_Ytx6wrmI-32" target="QojsgQzTeg6_Ytx6wrmI-96">
          <mxGeometry relative="1" as="geometry" />
        </mxCell>
        <mxCell id="QojsgQzTeg6_Ytx6wrmI-99" value="" style="edgeStyle=orthogonalEdgeStyle;rounded=0;orthogonalLoop=1;jettySize=auto;html=1;" edge="1" parent="1" source="QojsgQzTeg6_Ytx6wrmI-32" target="QojsgQzTeg6_Ytx6wrmI-98">
          <mxGeometry relative="1" as="geometry" />
        </mxCell>
        <mxCell id="QojsgQzTeg6_Ytx6wrmI-32" value="van gond" style="rounded=1;whiteSpace=wrap;html=1;" vertex="1" parent="1">
          <mxGeometry x="-150" y="1125" width="70" height="40" as="geometry" />
        </mxCell>
        <mxCell id="QojsgQzTeg6_Ytx6wrmI-36" value="" style="edgeStyle=orthogonalEdgeStyle;rounded=0;orthogonalLoop=1;jettySize=auto;html=1;" edge="1" parent="1" source="QojsgQzTeg6_Ytx6wrmI-34" target="QojsgQzTeg6_Ytx6wrmI-35">
          <mxGeometry relative="1" as="geometry" />
        </mxCell>
        <mxCell id="QojsgQzTeg6_Ytx6wrmI-37" style="edgeStyle=orthogonalEdgeStyle;rounded=0;orthogonalLoop=1;jettySize=auto;html=1;" edge="1" parent="1" source="QojsgQzTeg6_Ytx6wrmI-34" target="QojsgQzTeg6_Ytx6wrmI-38">
          <mxGeometry relative="1" as="geometry">
            <mxPoint y="1160" as="targetPoint" />
          </mxGeometry>
        </mxCell>
        <mxCell id="QojsgQzTeg6_Ytx6wrmI-34" value="személyi igazolvány" style="rounded=1;whiteSpace=wrap;html=1;" vertex="1" parent="1">
          <mxGeometry x="35" y="1005" width="90" height="50" as="geometry" />
        </mxCell>
        <mxCell id="QojsgQzTeg6_Ytx6wrmI-35" value="nincs gond" style="whiteSpace=wrap;html=1;rounded=1;" vertex="1" parent="1">
          <mxGeometry x="125" y="1127.5" width="60" height="35" as="geometry" />
        </mxCell>
        <mxCell id="QojsgQzTeg6_Ytx6wrmI-105" value="" style="edgeStyle=orthogonalEdgeStyle;rounded=0;orthogonalLoop=1;jettySize=auto;html=1;" edge="1" parent="1" source="QojsgQzTeg6_Ytx6wrmI-38" target="QojsgQzTeg6_Ytx6wrmI-104">
          <mxGeometry relative="1" as="geometry" />
        </mxCell>
        <mxCell id="QojsgQzTeg6_Ytx6wrmI-106" style="edgeStyle=orthogonalEdgeStyle;rounded=0;orthogonalLoop=1;jettySize=auto;html=1;" edge="1" parent="1" source="QojsgQzTeg6_Ytx6wrmI-38" target="QojsgQzTeg6_Ytx6wrmI-107">
          <mxGeometry relative="1" as="geometry">
            <mxPoint x="90" y="1225" as="targetPoint" />
          </mxGeometry>
        </mxCell>
        <mxCell id="QojsgQzTeg6_Ytx6wrmI-38" value="van gond" style="rounded=1;whiteSpace=wrap;html=1;" vertex="1" parent="1">
          <mxGeometry x="50" y="1140" width="60" height="30" as="geometry" />
        </mxCell>
        <mxCell id="QojsgQzTeg6_Ytx6wrmI-46" value="" style="edgeStyle=orthogonalEdgeStyle;rounded=0;orthogonalLoop=1;jettySize=auto;html=1;" edge="1" parent="1" source="QojsgQzTeg6_Ytx6wrmI-41" target="QojsgQzTeg6_Ytx6wrmI-45">
          <mxGeometry relative="1" as="geometry" />
        </mxCell>
        <mxCell id="QojsgQzTeg6_Ytx6wrmI-47" style="edgeStyle=orthogonalEdgeStyle;rounded=0;orthogonalLoop=1;jettySize=auto;html=1;" edge="1" parent="1" source="QojsgQzTeg6_Ytx6wrmI-41" target="QojsgQzTeg6_Ytx6wrmI-48">
          <mxGeometry relative="1" as="geometry">
            <mxPoint x="-1280" y="1260" as="targetPoint" />
          </mxGeometry>
        </mxCell>
        <mxCell id="QojsgQzTeg6_Ytx6wrmI-41" value="lefizetnek" style="whiteSpace=wrap;html=1;rounded=1;" vertex="1" parent="1">
          <mxGeometry x="-1290" y="1145" width="60" height="40" as="geometry" />
        </mxCell>
        <mxCell id="QojsgQzTeg6_Ytx6wrmI-43" value="nem fizetnek le" style="whiteSpace=wrap;html=1;rounded=1;" vertex="1" parent="1">
          <mxGeometry x="-1180" y="1157.5" width="55" height="40" as="geometry" />
        </mxCell>
        <mxCell id="QojsgQzTeg6_Ytx6wrmI-45" value="elfogadod" style="whiteSpace=wrap;html=1;rounded=1;" vertex="1" parent="1">
          <mxGeometry x="-1460" y="1135" width="60" height="45" as="geometry" />
        </mxCell>
        <mxCell id="QojsgQzTeg6_Ytx6wrmI-48" value="nem fogadod el" style="rounded=1;whiteSpace=wrap;html=1;" vertex="1" parent="1">
          <mxGeometry x="-1320" y="1227.5" width="80" height="40" as="geometry" />
        </mxCell>
        <mxCell id="QojsgQzTeg6_Ytx6wrmI-55" style="edgeStyle=orthogonalEdgeStyle;rounded=0;orthogonalLoop=1;jettySize=auto;html=1;" edge="1" parent="1" source="QojsgQzTeg6_Ytx6wrmI-49" target="QojsgQzTeg6_Ytx6wrmI-56">
          <mxGeometry relative="1" as="geometry">
            <mxPoint x="-1060" y="1240" as="targetPoint" />
          </mxGeometry>
        </mxCell>
        <mxCell id="QojsgQzTeg6_Ytx6wrmI-58" value="" style="edgeStyle=orthogonalEdgeStyle;rounded=0;orthogonalLoop=1;jettySize=auto;html=1;" edge="1" parent="1" source="QojsgQzTeg6_Ytx6wrmI-49" target="QojsgQzTeg6_Ytx6wrmI-57">
          <mxGeometry relative="1" as="geometry" />
        </mxCell>
        <mxCell id="QojsgQzTeg6_Ytx6wrmI-49" value="lefizetnek" style="whiteSpace=wrap;html=1;rounded=1;" vertex="1" parent="1">
          <mxGeometry x="-1015" y="1185" width="55" height="35" as="geometry" />
        </mxCell>
        <mxCell id="QojsgQzTeg6_Ytx6wrmI-53" value="nem fizetnek le" style="rounded=1;whiteSpace=wrap;html=1;" vertex="1" parent="1">
          <mxGeometry x="-940" y="1182.5" width="70" height="40" as="geometry" />
        </mxCell>
        <mxCell id="QojsgQzTeg6_Ytx6wrmI-56" value="elfogadod" style="rounded=1;whiteSpace=wrap;html=1;" vertex="1" parent="1">
          <mxGeometry x="-1120" y="1230" width="60" height="50" as="geometry" />
        </mxCell>
        <mxCell id="QojsgQzTeg6_Ytx6wrmI-57" value="nem fogadod el" style="whiteSpace=wrap;html=1;rounded=1;" vertex="1" parent="1">
          <mxGeometry x="-1027.5" y="1277.5" width="77.5" height="32.5" as="geometry" />
        </mxCell>
        <mxCell id="QojsgQzTeg6_Ytx6wrmI-59" value="" style="edgeStyle=orthogonalEdgeStyle;rounded=0;orthogonalLoop=1;jettySize=auto;html=1;" edge="1" parent="1" source="QojsgQzTeg6_Ytx6wrmI-60" target="QojsgQzTeg6_Ytx6wrmI-63">
          <mxGeometry relative="1" as="geometry" />
        </mxCell>
        <mxCell id="QojsgQzTeg6_Ytx6wrmI-65" value="" style="edgeStyle=orthogonalEdgeStyle;rounded=0;orthogonalLoop=1;jettySize=auto;html=1;" edge="1" parent="1" source="QojsgQzTeg6_Ytx6wrmI-60" target="QojsgQzTeg6_Ytx6wrmI-62">
          <mxGeometry relative="1" as="geometry" />
        </mxCell>
        <mxCell id="QojsgQzTeg6_Ytx6wrmI-60" value="lefizetnek" style="whiteSpace=wrap;html=1;rounded=1;" vertex="1" parent="1">
          <mxGeometry x="-845" y="1372.5" width="55" height="35" as="geometry" />
        </mxCell>
        <mxCell id="QojsgQzTeg6_Ytx6wrmI-61" value="nem fizetnek le" style="rounded=1;whiteSpace=wrap;html=1;" vertex="1" parent="1">
          <mxGeometry x="-780" y="1390" width="70" height="40" as="geometry" />
        </mxCell>
        <mxCell id="QojsgQzTeg6_Ytx6wrmI-62" value="elfogadod" style="rounded=1;whiteSpace=wrap;html=1;" vertex="1" parent="1">
          <mxGeometry x="-950" y="1417.5" width="60" height="50" as="geometry" />
        </mxCell>
        <mxCell id="QojsgQzTeg6_Ytx6wrmI-63" value="nem fogadod el" style="whiteSpace=wrap;html=1;rounded=1;" vertex="1" parent="1">
          <mxGeometry x="-857.5" y="1465" width="77.5" height="32.5" as="geometry" />
        </mxCell>
        <mxCell id="QojsgQzTeg6_Ytx6wrmI-68" value="" style="edgeStyle=orthogonalEdgeStyle;rounded=0;orthogonalLoop=1;jettySize=auto;html=1;" edge="1" parent="1" source="QojsgQzTeg6_Ytx6wrmI-71" target="QojsgQzTeg6_Ytx6wrmI-74">
          <mxGeometry relative="1" as="geometry" />
        </mxCell>
        <mxCell id="QojsgQzTeg6_Ytx6wrmI-69" value="" style="edgeStyle=orthogonalEdgeStyle;rounded=0;orthogonalLoop=1;jettySize=auto;html=1;" edge="1" parent="1" source="QojsgQzTeg6_Ytx6wrmI-71" target="QojsgQzTeg6_Ytx6wrmI-73">
          <mxGeometry relative="1" as="geometry" />
        </mxCell>
        <mxCell id="QojsgQzTeg6_Ytx6wrmI-71" value="lefizetnek" style="whiteSpace=wrap;html=1;rounded=1;" vertex="1" parent="1">
          <mxGeometry x="-630" y="1310" width="55" height="35" as="geometry" />
        </mxCell>
        <mxCell id="QojsgQzTeg6_Ytx6wrmI-72" value="nem fizetnek le" style="rounded=1;whiteSpace=wrap;html=1;" vertex="1" parent="1">
          <mxGeometry x="-530" y="1317.5" width="47.5" height="40" as="geometry" />
        </mxCell>
        <mxCell id="QojsgQzTeg6_Ytx6wrmI-73" value="elfogadod" style="rounded=1;whiteSpace=wrap;html=1;" vertex="1" parent="1">
          <mxGeometry x="-670" y="1395" width="60" height="50" as="geometry" />
        </mxCell>
        <mxCell id="QojsgQzTeg6_Ytx6wrmI-74" value="nem fogadod el" style="whiteSpace=wrap;html=1;rounded=1;" vertex="1" parent="1">
          <mxGeometry x="-600" y="1412.5" width="77.5" height="32.5" as="geometry" />
        </mxCell>
        <mxCell id="QojsgQzTeg6_Ytx6wrmI-100" style="edgeStyle=orthogonalEdgeStyle;rounded=0;orthogonalLoop=1;jettySize=auto;html=1;" edge="1" parent="1" source="QojsgQzTeg6_Ytx6wrmI-96" target="QojsgQzTeg6_Ytx6wrmI-101">
          <mxGeometry relative="1" as="geometry">
            <mxPoint x="-280" y="1255" as="targetPoint" />
          </mxGeometry>
        </mxCell>
        <mxCell id="QojsgQzTeg6_Ytx6wrmI-103" value="" style="edgeStyle=orthogonalEdgeStyle;rounded=0;orthogonalLoop=1;jettySize=auto;html=1;" edge="1" parent="1" source="QojsgQzTeg6_Ytx6wrmI-96" target="QojsgQzTeg6_Ytx6wrmI-102">
          <mxGeometry relative="1" as="geometry" />
        </mxCell>
        <mxCell id="QojsgQzTeg6_Ytx6wrmI-96" value="lefizetnek" style="whiteSpace=wrap;html=1;rounded=1;" vertex="1" parent="1">
          <mxGeometry x="-250" y="1175" width="75" height="40" as="geometry" />
        </mxCell>
        <mxCell id="QojsgQzTeg6_Ytx6wrmI-98" value="nem fizetnek le" style="whiteSpace=wrap;html=1;rounded=1;" vertex="1" parent="1">
          <mxGeometry x="-130" y="1202.5" width="75" height="40" as="geometry" />
        </mxCell>
        <mxCell id="QojsgQzTeg6_Ytx6wrmI-101" value="elfogadod" style="rounded=1;whiteSpace=wrap;html=1;" vertex="1" parent="1">
          <mxGeometry x="-340" y="1225" width="60" height="40" as="geometry" />
        </mxCell>
        <mxCell id="QojsgQzTeg6_Ytx6wrmI-102" value="nem fogadod el" style="whiteSpace=wrap;html=1;rounded=1;" vertex="1" parent="1">
          <mxGeometry x="-253.75" y="1265" width="82.5" height="40" as="geometry" />
        </mxCell>
        <mxCell id="QojsgQzTeg6_Ytx6wrmI-109" value="" style="edgeStyle=orthogonalEdgeStyle;rounded=0;orthogonalLoop=1;jettySize=auto;html=1;" edge="1" parent="1" source="QojsgQzTeg6_Ytx6wrmI-104" target="QojsgQzTeg6_Ytx6wrmI-108">
          <mxGeometry relative="1" as="geometry" />
        </mxCell>
        <mxCell id="QojsgQzTeg6_Ytx6wrmI-110" style="edgeStyle=orthogonalEdgeStyle;rounded=0;orthogonalLoop=1;jettySize=auto;html=1;" edge="1" parent="1" source="QojsgQzTeg6_Ytx6wrmI-104" target="QojsgQzTeg6_Ytx6wrmI-111">
          <mxGeometry relative="1" as="geometry">
            <mxPoint x="50" y="1315" as="targetPoint" />
          </mxGeometry>
        </mxCell>
        <mxCell id="QojsgQzTeg6_Ytx6wrmI-104" value="lefizetnek" style="whiteSpace=wrap;html=1;rounded=1;" vertex="1" parent="1">
          <mxGeometry x="-10" y="1215" width="60" height="40" as="geometry" />
        </mxCell>
        <mxCell id="QojsgQzTeg6_Ytx6wrmI-107" value="nem fizetnek le" style="rounded=1;whiteSpace=wrap;html=1;" vertex="1" parent="1">
          <mxGeometry x="70" y="1220" width="90" height="30" as="geometry" />
        </mxCell>
        <mxCell id="QojsgQzTeg6_Ytx6wrmI-108" value="elfogadod" style="whiteSpace=wrap;html=1;rounded=1;" vertex="1" parent="1">
          <mxGeometry x="-60" y="1297.5" width="70" height="40" as="geometry" />
        </mxCell>
        <mxCell id="QojsgQzTeg6_Ytx6wrmI-111" value="nem fogadod el" style="rounded=1;whiteSpace=wrap;html=1;" vertex="1" parent="1">
          <mxGeometry x="20" y="1305" width="70" height="40" as="geometry" />
        </mxCell>
      </root>
    </mxGraphModel>
  </diagram>
</mxfile>
